<?xml version="1.0" standalone="no"?>
<!DOCTYPE svg PUBLIC "-//W3C//DTD SVG 20010904//EN"
 "http://www.w3.org/TR/2001/REC-SVG-20010904/DTD/svg10.dtd">
<svg version="1.0" xmlns="http://www.w3.org/2000/svg"
 width="134.000000pt" height="134.000000pt" viewBox="0 0 134.000000 134.000000"
 preserveAspectRatio="xMidYMid meet">
<metadata>
Created by potrace 1.14, written by Peter Selinger 2001-2017
</metadata>
<g transform="translate(0.000000,134.000000) scale(0.100000,-0.100000)"
fill="#000000" stroke="none">
<path d="M590 1201 c-181 -25 -342 -137 -412 -287 -26 -55 -31 -80 -32 -138 0
-167 92 -276 234 -276 106 0 144 34 231 204 34 65 79 138 101 162 76 82 219
109 323 60 94 -43 149 -131 171 -271 l12 -80 1 82 c3 242 -172 472 -404 531
-59 15 -163 21 -225 13z m85 -110 c3 -5 -3 -12 -13 -15 -43 -14 -112 -99 -186
-228 -44 -79 -123 -115 -163 -75 -25 25 -20 94 10 153 47 92 133 148 250 163
89 12 95 12 102 2z"/>
<path d="M858 797 c-49 -30 -65 -52 -137 -194 -71 -139 -117 -189 -202 -216
-133 -43 -259 -1 -330 112 -34 52 -48 99 -59 191 l-7 65 -2 -80 c-2 -152 53
-289 159 -395 111 -112 231 -160 400 -160 79 0 109 5 179 30 141 49 246 137
300 250 33 71 41 195 17 268 -32 94 -115 151 -221 152 -45 0 -69 -6 -97 -23z
m163 -246 c46 -37 22 -141 -50 -224 -50 -56 -132 -90 -231 -95 l-85 -4 30 20
c45 29 98 91 146 173 52 91 75 118 114 135 40 18 49 17 76 -5z"/>
</g>
</svg>
