<svg id="Layer_1" data-name="Layer 1" xmlns="http://www.w3.org/2000/svg" viewBox="0 0 503 155"><defs><style>.cls-1{fill:#fff;}</style></defs><title>mainlogo</title><path class="cls-1" d="M86.3,124.51c-13-1.49-22.9.2-35.42,1.75-11.93,1.48-23.06-1.75-35.42-1.75L19,104.38H57.07q6.49-29,13-58H93.86l-13.44,58h9.43ZM28.59,100.93q5.1-29,10.22-58h-9c0-8,.06-12.07.1-20.09,23.93,5.17,46.79-6.59,70.26,0l1,20.12H62.38q-5.1,29-10.22,58Zm97.59-39.56h13.11l-3.75,21.28H122.43q-4,22.65-8,45.31H89.14q8.33-47.14,16.63-94.3l-3.65-12.54h31.16Q129.73,41.25,126.18,61.37Z"/><path class="cls-1" d="M200.41,83.22H172.69l-6.55-8.51q-2.52,14.27-5,28.52h41.75l-3.75,21.28c-18.89-3.33-35.75,4.36-54.63,0a4.66,4.66,0,0,1-3.93-1.84c-2.1-2.72-3.15-4.07-5.24-6.79a5.21,5.21,0,0,1-1-4.25q6.72-38.13,13.45-76.25c-1.47-5-2.2-7.52-3.66-12.53,22.87,7.63,44.15-7.32,66-.29.34,9,.51,13.05.85,21.56H171.53c-1.25,7.13-1.88,10.7-3.14,17.83h31.17Zm23-49.56-3.65-12.54h31.17L232.08,128h-25.3Z"/><path class="cls-1" d="M320.33,22.43C314.6,56,309.06,89.64,302.4,123c-17.74-3.91-30.21,8.6-48.64,2.5a5.38,5.38,0,0,1-3.93-1.85c-2.1-2.57-3.15-4.86-5.25-7.75a5.37,5.37,0,0,1-1-4.29l13.44-76.25L253.4,22.85C276.7,30.45,298.07,15.61,320.33,22.43ZM291.85,44.12H280.23Q275,73.69,269.81,103.23h11.62Q286.64,73.68,291.85,44.12ZM348,61.37h14.26l-3.75,21.28H344.28q-4,22.65-8,45.31H311q8.31-47.14,16.63-94.3c-1.46-5-2.19-7.52-3.66-12.54h31.17Q351.58,41.25,348,61.37Z"/><path class="cls-1" d="M470,116.65c9.05,8.92,14.52,11,15.45,22-21.26-5.06-41.9-7.89-63.2-10.72-15.64-2.08-28.41.44-44.27,0a4.66,4.66,0,0,1-3.93-1.84l-5.25-6.79a5.2,5.2,0,0,1-1-4.25c1.48-8.42,2.23-12.63,3.71-21h73.94c.24-1.33.36-2,.59-3.33H372.13c1.09-6.21,1.64-9.32,2.74-15.53h99.24c-2.15,12.18-4.3,24.29-6,36.54-23.5-5.4-49.86-2.73-73.95-2.73-.24,1.38-.36,2.07-.61,3.45C418.37,112.43,446.34,109.13,470,116.65Zm-50.9-83a6.69,6.69,0,0,1,.84,2.07,4.18,4.18,0,0,1-.23,2.3l-9.16,31.74-23,1.38,7.86-27H375.51l.3-21.27c14,2.87,20.55,3.73,34.27,0A4.22,4.22,0,0,1,414,24.92Zm3.44,4.6H432l.92-5.18c-1.51-4.78-2.26-7.17-3.76-12,11.09,0,16.63-2.4,27.72-.11q-4.44,25.37-8.93,50.71H426.07l2.66-15.06h-11.5C419.36,49.3,420.42,45.62,422.54,38.26Zm61.1-17.14q-4.45,25.3-8.92,50.6H452.87c3-17.22,6.15-34.43,8.92-51.7C470.53,15.72,474.9,21.12,483.64,21.12Z"/></svg>