<svg width="37" height="33" viewBox="0 0 37 33" fill="none" xmlns="http://www.w3.org/2000/svg">
<path d="M28 11.5V5C28 3.34315 26.6569 2 25 2H6C4.34315 2 3 3.34315 3 5V23C3 24.6569 4.34315 26 6 26H20.5" stroke="white" stroke-width="3"/>
<path d="M9 9H17" stroke="white" stroke-width="3" stroke-miterlimit="8.86082" stroke-linecap="square" stroke-linejoin="round"/>
<path d="M9 15L12 15" stroke="white" stroke-width="3" stroke-miterlimit="8.86082" stroke-linecap="square" stroke-linejoin="round"/>
<path d="M33 18.5C33 23.1944 29.1944 27 24.5 27C19.8056 27 16 23.1944 16 18.5C16 13.8056 19.8056 10 24.5 10C29.1944 10 33 13.8056 33 18.5Z" stroke="white" stroke-width="3"/>
<path d="M30.4906 30.4731L31.6906 32.0731L34.8906 29.6731L33.6906 28.0731L30.4906 30.4731ZM27.7633 26.8367L30.4906 30.4731L33.6906 28.0731L30.9633 24.4367L27.7633 26.8367Z" fill="white"/>
</svg>
