<svg xmlns="http://www.w3.org/2000/svg" width="71" height="59" fill="none"><path stroke="#A9C411" stroke-linecap="round" stroke-width="3" d="M46.73 44.406s1.001.627-2.394 4.667c0 0-3.954 4.446-4.518 3.899-.184-.93-.854-3.143-1.278-4.047-1.026-2.181-1.4-3.297-2.484-5.147"/><path stroke="#A9C411" stroke-linecap="round" stroke-width="3" d="M41.5 50.062c.802-3.515-1-17-3.546-20.228 1.994 4.228-.568-3.683-6.626-6.213-3.392-1.417-8.116-2.548-10.756 0-2.387 2.303-3.018 5.627-2.124 8.698.734 2.52 3.186 4.352 5.912 3.863 3.71-.665 3.303-8.224 2.347-10.588C22.16 14.344 7.577 13.812 7 16.062"/></svg>