<svg xmlns="http://www.w3.org/2000/svg" width="41" height="40" fill="none"><rect width="31" height="29" x="1.5" y="1.5" fill="#fff" stroke="#595959" stroke-width="3" rx="4.5"/><path stroke="#595959" stroke-linecap="square" stroke-linejoin="round" stroke-miterlimit="8.861" stroke-width="3" d="M9.798 10.58h9.048M9.798 16.477h4.498"/><path fill="#EBF5B4" stroke="#595959" stroke-width="3" d="M26.5 32.5c6.075 0 11-4.925 11-11s-4.925-11-11-11-11 4.925-11 11 4.925 11 11 11Z"/><path fill="#595959" d="m36.11 37.813 1.2 1.6 3.2-2.4-1.2-1.6-3.2 2.4ZM30.4 30.2l5.71 7.613 3.2-2.4L33.6 27.8l-3.2 2.4Z"/><path stroke="#616161" stroke-linecap="round" stroke-width="3" d="M20.59 20.314c.012.102.084.159.153.228M22 17.119c.306-.394.83-.657 1.243-.915.394-.245.794-.535 1.222-.722.632-.275 1.292-.461 2.123-.582 1.159-.168 1.113-.1 1.86-.003"/></svg>