<svg xmlns="http://www.w3.org/2000/svg" width="34" height="35" fill="none"><path stroke="#333" stroke-width="3" d="M5.287 26.955 3.86 31.882l4.126-2.102"/><path stroke="#333" stroke-width="3" d="M32.5 17c0 8.56-6.94 15.5-15.5 15.5-8.56 0-15.5-6.94-15.5-15.5C1.5 8.44 8.44 1.5 17 1.5c8.56 0 15.5 6.94 15.5 15.5Z"/><path fill="#333" d="M14.758 20.549v-.302c.006-1.036.098-1.861.276-2.477.183-.615.45-1.112.799-1.491.349-.379.77-.722 1.26-1.03.367-.237.696-.482.986-.737.29-.254.52-.536.692-.843.172-.314.258-.663.258-1.048 0-.408-.098-.766-.293-1.074a1.95 1.95 0 0 0-.79-.71 2.353 2.353 0 0 0-1.083-.249 2.41 2.41 0 0 0-1.092.258 2.084 2.084 0 0 0-.844.745c-.219.326-.337.731-.355 1.216H10.95c.03-1.183.314-2.16.852-2.93a4.882 4.882 0 0 1 2.14-1.73c.887-.385 1.867-.577 2.938-.577 1.178 0 2.22.195 3.125.586.906.384 1.616.944 2.131 1.677.515.734.772 1.62.772 2.655 0 .692-.115 1.308-.346 1.847a4.499 4.499 0 0 1-.95 1.42c-.408.408-.89.778-1.447 1.11a5.875 5.875 0 0 0-1.154.87 2.957 2.957 0 0 0-.666 1.047c-.142.397-.216.885-.222 1.465v.302h-3.365Zm1.758 5.682a2.084 2.084 0 0 1-1.518-.622 2.042 2.042 0 0 1-.612-1.509 2.003 2.003 0 0 1 .612-1.491c.42-.415.927-.622 1.518-.622.563 0 1.057.207 1.483.622.426.414.642.911.648 1.491-.006.39-.11.749-.31 1.074-.196.32-.453.577-.773.773-.32.19-.669.284-1.048.284Z"/></svg>