<svg width="41" height="40" viewBox="0 0 41 40" fill="none" xmlns="http://www.w3.org/2000/svg">
<rect x="1.5" y="1.5" width="31" height="29" rx="4.5" fill="white" stroke="#595959" stroke-width="3"/>
<path d="M9.79834 10.5801H18.8459" stroke="#595959" stroke-width="3" stroke-miterlimit="8.86082" stroke-linecap="square" stroke-linejoin="round"/>
<path d="M9.79834 16.4766L14.2965 16.4766" stroke="#595959" stroke-width="3" stroke-miterlimit="8.86082" stroke-linecap="square" stroke-linejoin="round"/>
<path d="M26.5 32.5C32.5751 32.5 37.5 27.5751 37.5 21.5C37.5 15.4249 32.5751 10.5 26.5 10.5C20.4249 10.5 15.5 15.4249 15.5 21.5C15.5 27.5751 20.4249 32.5 26.5 32.5Z" fill="#EBF5B4" stroke="#595959" stroke-width="3"/>
<path d="M36.1093 37.8125L37.3093 39.4125L40.5093 37.0125L39.3093 35.4125L36.1093 37.8125ZM30.4 30.2L36.1093 37.8125L39.3093 35.4125L33.6 27.8L30.4 30.2Z" fill="#595959"/>
<path d="M20.5907 20.3135C20.6021 20.4161 20.6736 20.4727 20.7433 20.5424" stroke="#616161" stroke-width="3" stroke-linecap="round"/>
<path d="M22 17.119C22.306 16.725 22.8303 16.4619 23.2428 16.2045C23.6366 15.9588 24.0366 15.6688 24.4647 15.4822C25.0968 15.2067 25.7573 15.0208 26.5879 14.9001C27.7465 14.7317 27.7015 14.8004 28.4473 14.8972" stroke="#616161" stroke-width="3" stroke-linecap="round"/>
</svg>
