<svg xmlns="http://www.w3.org/2000/svg" width="41" height="42" fill="none"><path fill="#595959" fill-rule="evenodd" d="M4.443 37.487 6.703 31l3.778 1.316-.818 2.346 2.697-1.076 1.483 3.716-6.77 2.7L3 41.627l1.443-4.14Z" clip-rule="evenodd"/><path fill="#fff" stroke="#595959" stroke-width="4" d="M20.96 38.081c9.963 0 18.04-8.077 18.04-18.04C39 10.077 30.923 2 20.96 2 10.995 2 2.918 10.077 2.918 20.04c0 9.964 8.077 18.041 18.04 18.041Z"/><path fill="#595959" d="M19.113 24.436v-.302c.006-1.036.097-1.861.275-2.477.183-.616.45-1.113.799-1.491.35-.38.77-.723 1.26-1.03.368-.237.696-.483.986-.737.29-.255.52-.536.693-.844.171-.313.257-.663.257-1.047a1.96 1.96 0 0 0-.293-1.074 1.95 1.95 0 0 0-.79-.71 2.351 2.351 0 0 0-1.083-.25 2.41 2.41 0 0 0-1.092.258 2.085 2.085 0 0 0-.844.746c-.218.325-.337.73-.355 1.216h-3.622c.03-1.183.314-2.16.852-2.93a4.881 4.881 0 0 1 2.14-1.73c.888-.385 1.867-.578 2.939-.578 1.177 0 2.219.196 3.125.586.905.385 1.615.944 2.13 1.678.515.734.773 1.619.773 2.655 0 .692-.116 1.308-.347 1.846a4.5 4.5 0 0 1-.95 1.42c-.408.41-.89.779-1.447 1.11a5.869 5.869 0 0 0-1.154.87 2.957 2.957 0 0 0-.666 1.048c-.142.397-.216.885-.222 1.465v.302h-3.364Zm1.758 5.681a2.084 2.084 0 0 1-1.518-.62 2.043 2.043 0 0 1-.613-1.51 2.003 2.003 0 0 1 .613-1.492c.42-.414.926-.621 1.518-.621.562 0 1.056.207 1.482.621.426.415.642.912.648 1.492-.006.39-.11.749-.31 1.074-.196.32-.453.577-.773.773-.32.189-.669.284-1.047.284Z"/></svg>